<svg width="28" height="13" viewBox="0 0 28 13" fill="none" xmlns="http://www.w3.org/2000/svg">
<path d="M4.16 6.336H8.96V12H7.04V10.752H6.752C6.624 11.168 6.37867 11.52 6.016 11.808C5.65333 12.0853 5.10933 12.224 4.384 12.224C3.872 12.224 3.392 12.128 2.944 11.936C2.496 11.744 2.10667 11.4613 1.776 11.088C1.44533 10.704 1.184 10.2347 0.992 9.68C0.8 9.11467 0.704 8.45867 0.704 7.712V5.088C0.704 4.36267 0.805333 3.72267 1.008 3.168C1.22133 2.60267 1.50933 2.128 1.872 1.744C2.24533 1.36 2.688 1.072 3.2 0.879999C3.712 0.677333 4.27733 0.575999 4.896 0.575999C5.536 0.575999 6.10667 0.682666 6.608 0.896C7.10933 1.09867 7.536 1.38667 7.888 1.76C8.24 2.12267 8.50667 2.55467 8.688 3.056C8.86933 3.54667 8.96 4.07467 8.96 4.64V4.832H6.848V4.64C6.848 3.968 6.672 3.46133 6.32 3.12C5.97867 2.768 5.49333 2.592 4.864 2.592C4.26667 2.592 3.776 2.79467 3.392 3.2C3.008 3.59467 2.816 4.27733 2.816 5.248V7.616C2.816 9.344 3.52 10.208 4.928 10.208C5.55733 10.208 6.032 10.0427 6.352 9.712C6.68267 9.37067 6.848 8.91733 6.848 8.352H4.16V6.336ZM10.7729 0.799999H12.8849V5.376H16.5009V0.799999H18.6129V12H16.5009V7.392H12.8849V12H10.7729V0.799999ZM25.1938 2.272C25.9298 2.4 26.4898 2.72 26.8738 3.232C27.2684 3.744 27.4658 4.4 27.4658 5.2V5.408H25.6418V5.184C25.6418 4.94933 25.6044 4.74133 25.5298 4.56C25.4551 4.37867 25.3431 4.23467 25.1938 4.128V8.688C25.4924 8.496 25.6418 8.13867 25.6418 7.616V7.392H27.4658V7.616C27.4658 8.448 27.2684 9.11467 26.8738 9.616C26.4898 10.1173 25.9298 10.4267 25.1938 10.544V11.552H23.8498V10.544C23.1138 10.4267 22.5378 10.096 22.1218 9.552C21.7164 8.99733 21.5138 8.24533 21.5138 7.296V5.408C21.5138 4.52267 21.7218 3.81333 22.1378 3.28C22.5644 2.736 23.1351 2.4 23.8498 2.272V1.248H25.1938V2.272ZM23.3378 7.504C23.3378 8.112 23.5084 8.512 23.8498 8.704V4.128C23.5084 4.34133 23.3378 4.72533 23.3378 5.28V7.504Z" fill="#9C92A3"/>
</svg>
