<svg width="89" height="51" viewBox="0 0 89 51" fill="none" xmlns="http://www.w3.org/2000/svg">
<path d="M0.968 0.199999H11.576V3.224H4.136V7.064H11.288V10.088H4.136V13.976H11.864V17H0.968V0.199999ZM19.7433 0.199999H22.9113V13.976H30.5433V17H19.7433V0.199999ZM38.5186 0.199999H49.1266V3.224H41.6866V7.064H48.8386V10.088H41.6866V13.976H49.4146V17H38.5186V0.199999ZM55.9019 0.199999H59.1659L62.4539 15.416H62.8859L66.1739 0.199999H69.4379L65.6459 17H59.6939L55.9019 0.199999ZM79.8612 11.096H79.1412L74.3172 0.199999H77.7732L81.2293 8.216H81.6613L85.1173 0.199999H88.5733L83.7492 11.096H83.0292V17H79.8612V11.096ZM0.968 33.2H4.136V46.976H11.768V50H0.968V33.2ZM27.9753 46.4H22.2633L21.4473 50H18.1353L22.1433 33.2H28.0953L32.1033 50H28.7913L27.9753 46.4ZM22.9353 43.376H27.2793L25.3353 34.784H24.9033L22.9353 43.376ZM37.8466 33.2H49.9426V36.224H45.4786V50H42.3106V36.224H37.8466V33.2ZM56.4779 39.728C56.4779 37.552 57.0219 35.864 58.1099 34.664C59.2139 33.464 60.7339 32.864 62.6699 32.864C64.6059 32.864 66.1179 33.464 67.2059 34.664C68.3099 35.864 68.8619 37.552 68.8619 39.728V43.472C68.8619 45.712 68.3099 47.416 67.2059 48.584C66.1179 49.752 64.6059 50.336 62.6699 50.336C60.7339 50.336 59.2139 49.752 58.1099 48.584C57.0219 47.416 56.4779 45.712 56.4779 43.472V39.728ZM62.6699 47.456C63.2459 47.456 63.7259 47.368 64.1099 47.192C64.4939 47 64.8059 46.736 65.0459 46.4C65.2859 46.064 65.4539 45.664 65.5499 45.2C65.6459 44.736 65.6939 44.224 65.6939 43.664V39.536C65.6939 39.008 65.6379 38.512 65.5259 38.048C65.4139 37.584 65.2379 37.184 64.9979 36.848C64.7579 36.512 64.4459 36.248 64.0619 36.056C63.6779 35.848 63.2139 35.744 62.6699 35.744C62.1259 35.744 61.6619 35.848 61.2779 36.056C60.8939 36.248 60.5819 36.512 60.3419 36.848C60.1019 37.184 59.9259 37.584 59.8139 38.048C59.7019 38.512 59.6459 39.008 59.6459 39.536V43.664C59.6459 44.224 59.6939 44.736 59.7899 45.2C59.8859 45.664 60.0539 46.064 60.2939 46.4C60.5339 46.736 60.8459 47 61.2299 47.192C61.6139 47.368 62.0939 47.456 62.6699 47.456ZM87.1333 50H83.9653V44.96C83.9653 44.576 83.8613 44.264 83.6533 44.024C83.4613 43.784 83.1332 43.664 82.6693 43.664H79.0213V50H75.8532V33.2H82.2853C83.1493 33.2 83.9093 33.32 84.5653 33.56C85.2213 33.8 85.7653 34.136 86.1972 34.568C86.6452 34.984 86.9812 35.472 87.2052 36.032C87.4453 36.592 87.5653 37.192 87.5653 37.832V38.408C87.5653 39.096 87.3813 39.744 87.0133 40.352C86.6453 40.944 86.0773 41.4 85.3092 41.72V42.152C85.8693 42.216 86.3093 42.432 86.6293 42.8C86.9653 43.168 87.1333 43.632 87.1333 44.192V50ZM79.0213 40.64H82.0453C82.8133 40.64 83.3972 40.464 83.7973 40.112C84.1973 39.744 84.3973 39.232 84.3973 38.576V38.288C84.3973 37.728 84.1973 37.248 83.7973 36.848C83.3972 36.432 82.8133 36.224 82.0453 36.224H79.0213V40.64Z" fill="#0B3142"/>
</svg>
